<svg width="268" height="100" viewBox="0 0 268 100" fill="none" xmlns="http://www.w3.org/2000/svg">
<path d="M26.6342 78.2117C26.6342 83.6245 25.9303 87.9239 24.5224 91.11C23.1146 94.296 21.2432 96.5742 18.9083 97.9445C16.5733 99.3148 14.101 100 11.4914 100C9.36248 100 7.50827 99.6574 5.92875 98.9722C4.34923 98.2871 3.13025 97.345 2.27181 96.1459C1.41338 94.9469 0.984161 93.5594 0.984161 91.9836C0.984161 90.4077 1.43055 89.26 2.32332 88.335C3.21609 87.4101 4.45224 86.9476 6.03176 86.9476C7.33658 86.9476 8.38387 87.273 9.17363 87.9239C9.96339 88.5749 10.6673 89.654 11.2854 91.1614C12.0408 92.5317 12.6589 93.508 13.1396 94.0904C13.6203 94.6728 14.2041 94.964 14.8908 94.964C15.9209 94.964 16.6935 94.5701 17.2086 93.7821C17.7236 92.9942 17.9812 91.9493 17.9812 90.6475C17.9812 89.2771 17.758 87.9582 17.3116 86.6906C16.8652 85.4231 16.2986 83.9671 15.6119 82.3227C14.9251 80.6783 14.3586 78.7256 13.9122 76.4645C13.4658 74.2035 13.2426 71.4628 13.2426 68.2425V38.0267C13.2426 35.6972 13.1396 33.9671 12.9336 32.8366C12.7276 31.7061 12.2468 31.038 11.4914 30.8325C10.736 30.6269 9.49984 30.7982 7.78297 31.3463V28.3659L26.6342 20.4522V78.2117ZM25.5011 13.3094C26.8746 11.8362 27.5613 10.0034 27.5613 7.81089C27.5613 5.61836 26.8746 3.76841 25.5011 2.26105C24.1276 0.753683 22.2733 0 19.9384 0C17.6035 0 15.6977 0.753683 14.2212 2.26105C12.7447 3.76841 12.0065 5.61836 12.0065 7.81089C12.0065 10.0034 12.7447 11.8362 14.2212 13.3094C15.6977 14.7825 17.6035 15.519 19.9384 15.519C22.2733 15.519 24.1276 14.7825 25.5011 13.3094Z" fill="#FA4028"/>
<path d="M46.1996 80.2672C43.3152 80.2672 40.7914 79.6677 38.6282 78.4687C36.4649 77.2696 34.7137 75.5567 33.3746 73.3299C32.0354 71.1031 31.3658 68.4824 31.3658 65.4676C31.3658 62.1788 31.9152 59.421 33.014 57.1942C34.1128 54.9674 35.7267 53.1004 37.8556 51.593C39.9845 50.0856 42.5598 48.8523 45.5815 47.8931C47.5044 47.2079 49.3758 46.5742 51.1957 45.9918C53.0156 45.4094 54.6809 44.6728 56.1918 43.7821C58.046 42.7544 59.3165 41.5382 60.0032 40.1336C60.69 38.729 61.0333 36.9647 61.0333 34.8407C61.0333 31.826 60.3981 29.4964 59.1276 27.852C57.8571 26.2076 55.9514 25.3854 53.4104 25.3854C51.4875 25.3854 50.011 25.7965 48.9809 26.6187C47.9508 27.4409 47.2297 28.6057 46.8177 30.113C46.4056 31.6204 45.9936 33.2991 45.5815 35.149C45.3755 36.999 44.8261 38.4892 43.9333 39.6197C43.0405 40.7503 41.4954 41.3155 39.2978 41.3155C37.3062 41.3155 35.761 40.716 34.6622 39.517C33.5634 38.3179 33.014 36.7934 33.014 34.9435C33.014 32.3398 33.9068 29.9589 35.6923 27.8006C37.4779 25.6423 39.9845 23.9123 43.2122 22.6105C46.4399 21.3087 50.2171 20.6578 54.5436 20.6578C58.3207 20.6578 61.6342 21.2573 64.4842 22.4563C67.3342 23.6554 69.5662 25.5396 71.18 28.1089C72.7939 30.6783 73.6008 33.9842 73.6008 38.0267V68.2425C73.6008 69.5444 73.824 70.5207 74.2704 71.1716C74.7168 71.8225 75.4207 72.148 76.3822 72.148C77.1376 72.148 77.8072 71.9082 78.3909 71.4286C78.9746 70.949 79.5069 70.4008 79.9876 69.7842L81.7388 71.7369C81.1894 72.8332 80.4683 74.0322 79.5755 75.334C78.6828 76.6358 77.4466 77.7492 75.8671 78.6742C74.2876 79.5992 72.3647 80.0617 70.0984 80.0617C67.8321 80.0617 66.0809 79.6163 64.6388 78.7256C63.1966 77.8349 62.1321 76.6187 61.4454 75.0771C60.7586 73.5355 60.4153 71.8397 60.4153 69.9897V45.7348C60.0719 46.0774 59.677 46.5228 59.2306 47.0709C58.7842 47.619 58.149 48.1672 57.3249 48.7153C56.5008 49.1949 55.7797 49.6232 55.1616 50C54.5436 50.3768 53.8912 50.7365 53.2044 51.0791C52.5177 51.4217 51.6249 51.9356 50.5261 52.6208C49.2213 53.3744 48.0881 54.2138 47.1267 55.1387C46.1652 56.0637 45.4613 57.1257 45.0149 58.3248C44.5686 59.5238 44.3454 60.9455 44.3454 62.5899C44.3454 65.7417 45.1008 68.0884 46.6116 69.63C48.1225 71.1716 49.908 71.9424 51.9683 71.9424C54.0285 71.9424 55.8484 71.3258 57.2219 70.0925C58.5954 68.8592 59.8315 67.3518 60.9303 65.5704L61.4454 69.9897C60.69 71.4971 59.6427 73.0387 58.3035 74.6146C56.9644 76.1905 55.3162 77.5266 53.3589 78.6228C51.4017 79.7191 49.0152 80.2672 46.1996 80.2672Z" fill="#FA4028"/>
<path d="M122.444 99.0749V96.0944C124.024 96.0944 125.225 95.8032 126.049 95.2208C126.874 94.6384 127.286 93.0454 127.286 90.4418V38.0266C127.286 35.697 127.183 33.967 126.977 32.8364C126.771 31.7059 126.307 31.0379 125.586 30.8323C124.865 30.6268 123.646 30.7981 121.929 31.3462V28.3657L140.574 20.4521V90.4418C140.574 92.2232 140.763 93.5079 141.141 94.2958C141.518 95.0838 142.171 95.5805 143.098 95.7861C144.025 95.9916 145.313 96.0944 146.961 96.0944V99.0749H122.444ZM143.871 79.0338C142.016 78.4171 140.351 77.5264 138.874 76.3616C137.398 75.1968 136.007 73.9635 134.702 72.6617L140.574 60.7398C140.574 63.6175 141.038 66.1526 141.965 68.3452C142.892 70.5377 144.214 72.2678 145.931 73.5353C147.648 74.8029 149.605 75.4366 151.802 75.4366C153.725 75.4366 155.511 74.82 157.159 73.5867C158.807 72.3534 160.112 70.2636 161.074 67.3174C162.035 64.3712 162.516 60.5343 162.516 55.8066C162.516 50.1883 162.069 45.4092 161.177 41.4695C160.284 37.5298 159.013 34.5151 157.365 32.4253C155.717 30.3356 153.588 29.2907 150.978 29.2907C149.536 29.2907 148.146 29.599 146.806 30.2157C145.467 30.8323 144.18 31.7573 142.943 32.9906C141.707 34.2239 140.643 35.7313 139.75 37.5127L138.411 34.2239C139.51 31.8258 140.918 29.599 142.634 27.5435C144.351 25.488 146.394 23.8265 148.764 22.559C151.133 21.2914 153.828 20.6576 156.85 20.6576C160.559 20.6576 163.889 21.7196 166.842 23.8436C169.795 25.9677 172.096 29.0509 173.744 33.0934C175.392 37.1359 176.216 42.1033 176.216 47.9957C176.216 54.8474 175.083 60.6199 172.817 65.3133C170.551 70.0067 167.478 73.621 163.597 76.1561C159.717 78.6912 155.271 79.9587 150.257 79.9587C147.854 79.9587 145.725 79.6504 143.871 79.0338Z" fill="#FA4028"/>
<path d="M204.048 79.9588C198.829 79.9588 194.417 78.6913 190.811 76.1562C187.206 73.621 184.442 70.1952 182.519 65.8787C180.596 61.5621 179.635 56.7317 179.635 51.3874C179.635 47.0709 180.235 43.0626 181.437 39.3627C182.639 35.6628 184.356 32.4254 186.588 29.6505C188.82 26.8756 191.429 24.7173 194.417 23.1757C197.404 21.6341 200.752 20.8632 204.46 20.8632C208.787 20.8632 212.495 21.8567 215.586 23.8437C218.676 25.8307 221.097 28.7084 222.848 32.4768C224.599 36.2452 225.475 40.8701 225.475 46.3514H187.875V41.7266H211.98C211.706 36.2452 210.744 32.1514 209.096 29.445C207.448 26.7385 205.285 25.3853 202.606 25.3853C201.027 25.3853 199.482 25.9506 197.971 27.0811C196.46 28.2117 195.207 30.113 194.211 32.7851C193.215 35.4573 192.717 39.0887 192.717 43.6793C192.717 49.0921 193.352 53.7512 194.623 57.6567C195.893 61.5621 197.765 64.5597 200.237 66.6495C202.709 68.7392 205.697 69.7841 209.199 69.7841C212.427 69.7841 215.139 68.8934 217.337 67.112C219.535 65.3305 221.286 62.7269 222.591 59.3011L225.784 60.5344C225.029 64.0972 223.741 67.3518 221.921 70.298C220.101 73.2442 217.732 75.5909 214.813 77.3381C211.895 79.0852 208.306 79.9588 204.048 79.9588Z" fill="#FA4028"/>
<path d="M252.491 79.0338H227.974V75.9506C229.348 75.9506 230.447 75.6765 231.271 75.1284C232.095 74.5802 232.507 73.0043 232.507 70.4007V38.3349C232.507 35.9369 232.438 34.1554 232.301 32.9906C232.163 31.8259 231.717 31.1407 230.962 30.9351C230.206 30.7296 229.004 30.9009 227.356 31.449V28.3658L246.001 20.3493V70.4007C246.001 72.2507 246.173 73.5525 246.516 74.3062C246.86 75.0598 247.512 75.5223 248.474 75.6936C249.435 75.8649 250.774 75.9506 252.491 75.9506V79.0338ZM252.388 31.3462C251.564 31.3462 250.74 31.7916 249.916 32.6823C249.092 33.573 248.268 34.7549 247.444 36.228C246.619 37.7012 245.83 39.3284 245.074 41.1099L243.735 36.9989C244.491 35.0804 245.366 33.1791 246.362 31.2949C247.358 29.4106 248.577 27.6806 250.019 26.1047C251.461 24.5288 252.937 23.227 254.448 22.1993C255.959 21.1715 257.607 20.6577 259.393 20.6577C261.797 20.6577 263.668 21.3599 265.007 22.7645C266.346 24.1691 267.016 26.1732 267.016 28.7769C267.016 31.1064 266.466 32.9393 265.368 34.2753C264.269 35.6114 262.758 36.2794 260.835 36.2794C259.599 36.2794 258.603 36.0396 257.848 35.56C257.092 35.0804 256.44 34.498 255.891 33.8128C255.341 33.1277 254.792 32.5453 254.242 32.0657C253.693 31.586 253.075 31.3462 252.388 31.3462Z" fill="#FA4028"/>
<path d="M110.874 67.7804C110.874 66.5471 110.634 65.3823 110.153 64.2861C109.673 63.1898 108.849 62.0764 107.681 60.9459C106.514 59.8154 104.9 58.6677 102.839 57.5029L94.8045 52.5697C91.7828 50.6513 89.3105 48.3902 87.3876 45.7866C85.4647 43.1829 84.5033 39.9627 84.5033 36.1257C84.5033 33.0425 85.2416 30.3703 86.7181 28.1093C88.1946 25.8483 90.2033 24.1182 92.7443 22.9192C95.2852 21.7201 98.1696 21.1206 101.397 21.1206C103.595 21.1206 105.415 21.3604 106.857 21.84C108.299 22.3196 109.518 22.7993 110.514 23.2789C111.51 23.7585 112.282 23.9983 112.832 23.9983C113.45 23.9983 113.913 23.8099 114.222 23.433C114.531 23.0562 114.72 22.5595 114.789 21.9428H118.6V37.8729H114.377C113.965 35.4748 113.175 33.3851 112.008 31.6036C110.84 29.8222 109.329 28.469 107.475 27.544C105.621 26.6191 103.458 26.1566 100.985 26.1566C99.2684 26.1566 97.8434 26.6533 96.7102 27.6468C95.5771 28.6403 95.0105 30.0278 95.0105 31.8092C95.0105 33.8647 95.6286 35.5605 96.8648 36.8966C98.1009 38.2326 100.024 39.7229 102.633 41.3673L110.668 46.3005C113.003 47.6708 115.046 49.2295 116.798 50.9767C118.549 52.7239 119.905 54.6423 120.867 56.7321C121.828 58.8219 122.309 61.1343 122.309 63.6694C122.309 66.5471 121.553 69.2193 120.042 71.6859C118.532 74.1525 116.351 76.1223 113.501 77.5954C110.651 79.0685 107.269 79.8051 103.355 79.8051C100.814 79.8051 98.6331 79.4967 96.8133 78.8801C94.9934 78.2635 93.534 77.6297 92.4352 76.9788C91.3364 76.3279 90.5123 76.0024 89.9629 76.0024C89.1388 76.0024 88.5723 76.3621 88.2632 77.0815C87.9542 77.801 87.7654 78.469 87.6967 79.0856H83.8852V60.2778H88.1087C88.3147 63.2926 89.1217 65.8619 90.5295 67.986C91.9373 70.11 93.6886 71.7715 95.7831 72.9705C97.8777 74.1696 100.161 74.7691 102.633 74.7691C105.312 74.7691 107.355 74.2038 108.763 73.0733C110.17 71.9428 110.874 70.1785 110.874 67.7804Z" fill="#FA4028"/>
</svg>
